<svg width="150" height="150" viewBox="0 0 150 150" fill="none" xmlns="http://www.w3.org/2000/svg">
<path d="M91.3043 0C73.92 0 58.3043 7.56 47.5565 19.5652H0V150H130.435V102.443C142.44 91.6957 150 76.08 150 58.6957C150 26.28 123.72 0 91.3043 0ZM86.7391 117.59C81.167 117.59 75.793 116.75 70.7322 115.19C101.009 81.7513 127.153 75.4383 129.814 87.6939C132.402 72.287 129.689 64.2574 124.983 64.2574C116.812 64.2574 86.3009 79.4556 69.4957 114.793C60.5217 111.793 52.5913 106.513 46.393 99.6417C81.7409 55.4817 121.758 49.753 126.61 58.7739C124.602 49.0852 116.718 40.1843 113.191 40.033C103.56 39.6156 67.4504 54.407 45.2661 98.353C39.3704 91.393 35.1965 82.9304 33.4017 73.6226C62.6348 38.7548 103.148 29.1652 111.85 36.5896C105.089 29.4939 96.48 25.7322 92.0765 25.4452C81.4017 24.7409 56.4209 33.72 33.0783 71.7652C32.6452 68.9948 32.4157 66.1565 32.4157 63.2661C32.4157 55.3356 34.1165 47.807 37.1687 41.0139C57.5009 21.9287 83.233 22.4139 83.233 22.4139C80.2278 20.7809 74.327 19.273 67.1426 19.273C60.4122 19.273 54.2348 21.3026 50.5617 22.7426C60.167 14.16 72.8452 8.94261 86.7444 8.94261C116.75 8.94261 141.068 33.2661 141.068 63.2661C141.068 93.2661 116.744 117.59 86.7444 117.59H86.7391Z" fill="black"/>
</svg>
