<?xml version="1.0" standalone="no"?>
<!DOCTYPE svg PUBLIC "-//W3C//DTD SVG 20010904//EN"
 "http://www.w3.org/TR/2001/REC-SVG-20010904/DTD/svg10.dtd">
<svg version="1.0" xmlns="http://www.w3.org/2000/svg"
 width="300.000000pt" height="300.000000pt" viewBox="0 0 300.000000 300.000000"
 preserveAspectRatio="xMidYMid meet">
<metadata>
Created by potrace 1.10, written by Peter Selinger 2001-2011
</metadata>
<g transform="translate(0.000000,300.000000) scale(0.100000,-0.100000)"
fill="#000000" stroke="none">
<path d="M1475 2171 c-10 -9 -258 -155 -467 -275 -65 -37 -118 -72 -118 -77 0
-15 8 -11 95 40 46 27 87 45 92 40 4 -4 30 6 58 23 27 17 51 26 53 20 1 -5 53
20 115 57 62 37 142 84 180 105 37 21 67 39 67 42 0 3 -56 34 -63 34 -1 0 -7
-4 -12 -9z"/>
<path d="M1560 2111 c-14 -10 -170 -102 -347 -205 -279 -163 -346 -206 -317
-206 3 0 45 23 92 52 48 29 87 47 89 41 3 -7 42 11 91 40 47 28 95 51 106 52
20 2 365 195 366 205 0 3 -12 13 -28 22 -25 15 -29 15 -52 -1z"/>
<path d="M1300 1849 c-421 -247 -417 -244 -409 -253 4 -4 46 17 93 45 52 31
90 48 94 42 4 -5 65 25 146 74 77 46 142 80 145 75 3 -4 89 40 189 99 l184
107 -31 16 c-16 9 -31 16 -33 15 -2 0 -172 -99 -378 -220z"/>
<path d="M1754 2006 c-10 -7 -206 -122 -434 -255 -228 -134 -419 -247 -424
-252 -5 -5 -7 -11 -4 -14 3 -3 44 17 91 46 47 28 91 48 96 44 6 -3 92 41 191
100 100 58 185 103 190 100 5 -3 91 42 190 101 128 75 177 110 168 116 -37 25
-45 27 -64 14z"/>
<path d="M1845 1951 c-6 -5 -219 -132 -475 -281 -255 -149 -469 -275 -474
-280 -5 -5 -7 -12 -4 -15 3 -3 42 17 88 45 45 28 88 49 96 46 11 -4 337 178
451 251 13 9 23 10 27 4 4 -5 33 7 69 28 34 21 117 70 185 109 l124 71 -31 15
c-35 18 -43 19 -56 7z"/>
<path d="M1895 1871 c-73 -46 -986 -580 -999 -584 -5 -2 -7 -8 -5 -15 3 -8 37
8 94 42 49 30 93 50 96 45 3 -5 128 62 277 150 150 88 280 159 289 159 10 -1
98 45 196 102 l177 103 -27 19 c-16 10 -30 17 -33 17 -3 -1 -32 -18 -65 -38z"/>
<path d="M1900 1765 c-211 -125 -760 -446 -897 -525 -62 -36 -113 -71 -113
-78 0 -10 9 -8 33 6 121 74 152 91 160 83 5 -5 40 11 80 35 266 159 482 282
487 275 9 -14 425 236 428 257 8 48 -22 40 -178 -53z"/>
<path d="M1970 1696 c-186 -112 -944 -554 -972 -567 -28 -12 -38 -29 -17 -29
6 0 30 12 54 26 25 14 49 23 54 19 9 -5 497 274 539 308 10 8 15 8 20 0 4 -7
86 36 217 113 202 118 210 124 216 158 3 20 3 36 0 36 -3 -1 -53 -29 -111 -64z"/>
<path d="M1710 1434 c-201 -118 -429 -252 -507 -296 -80 -46 -139 -86 -134
-91 4 -4 30 5 57 22 34 22 50 28 55 19 5 -8 11 -9 21 -1 42 34 442 262 447
255 3 -5 101 47 216 115 200 118 210 125 216 158 3 19 3 35 0 34 -3 0 -170
-97 -371 -215z"/>
<path d="M1955 1468 c-66 -39 -271 -158 -455 -266 -378 -220 -345 -200 -337
-208 3 -4 27 6 53 20 26 15 50 22 53 17 3 -5 89 40 190 101 101 60 190 107
197 104 7 -3 77 34 156 80 79 47 171 101 204 120 55 31 62 39 66 69 2 19 2 35
-2 35 -3 -1 -59 -33 -125 -72z"/>
<path d="M2046 1415 c-11 -8 -195 -117 -410 -242 -214 -126 -382 -229 -373
-231 9 -2 33 8 54 22 23 16 39 22 44 15 3 -6 60 22 143 71 76 44 144 79 151
78 8 -2 106 51 219 116 195 114 204 121 208 153 4 36 -6 41 -36 18z"/>
<path d="M1815 1169 c-148 -88 -314 -184 -367 -215 -54 -30 -98 -59 -98 -65 0
-15 13 -11 53 17 21 14 45 23 54 20 8 -4 52 16 100 44 47 28 91 49 98 48 7 -2
105 51 218 117 204 120 205 120 209 158 2 20 3 37 3 36 0 0 -121 -72 -270
-160z"/>
<path d="M2065 1211 c-11 -11 -467 -280 -562 -332 -35 -19 -63 -37 -63 -41 0
-15 26 -8 65 19 26 18 40 22 43 14 3 -8 18 -4 48 14 25 15 53 28 63 30 10 2
109 56 220 120 199 116 201 117 201 151 0 37 -1 39 -15 25z"/>
</g>
</svg>
